# xmcd
#
# Track frame offsets:
#	150
#	15936
#	32188
#	49569
#	68936
#	91501
#	116530
#	135979
#	152253
#	170456
#	188896
#	204278
#	221353
#	247993
#	262519
#	279169
#
# Disc length: 3948 seconds
#
# Revision: 1
# Processed by: cddbd v1.5.2PL0 Copyright (c) Steve Scherf et al.
# Submitted via: audiograbber 1.83.01
#
DISCID=b80f6a10
DTITLE=Blackberry Smoke - The Whippoorwill
DYEAR=2013
DGENRE=Country
TTITLE0=Six Ways To Sunday
TTITLE1=Pretty Little Lie
TTITLE2=Everybody Knows She's Mine
TTITLE3=One Horse Town
TTITLE4=Ain't Much Left Of Me
TTITLE5=The Whippoorwill
TTITLE6=Lucky Seven
TTITLE7=Leave A Scar
TTITLE8=Crimson Moon
TTITLE9=Ain't Got The Blues
TTITLE10=Sleeping Dogs
TTITLE11=Shakin' Hands With The Holy Ghost
TTITLE12=Up The Road
TTITLE13=Country Side Of Life
TTITLE14=Pretty Little Lie [Live]
TTITLE15=Six Ways To Sunday [Live]
EXTD=
EXTT0=
EXTT1=
EXTT2=
EXTT3=
EXTT4=
EXTT5=
EXTT6=
EXTT7=
EXTT8=
EXTT9=
EXTT10=
EXTT11=
EXTT12=
EXTT13=
EXTT14=
EXTT15=
PLAYORDER=
